# xmcd
#
# Track frame offsets:
# 150
# 20625
# 37953
# 55393
# 72131
# 91483
# 110843
# 131521
# 148781
# 161234
#
# Disc length: 2403 seconds
#
#
# Revision: 4
# Processed by: cddbd v1.5.1PL2 Copyright (c) Steve Scherf et al.
# Submitted via: FreeRIP 2.944 
#
DISCID=9209610a
DTITLE=Rodney Crowell - Street Language
DYEAR=1986
DGENRE=Country
TTITLE0=Let Freedom Ring
TTITLE1=Ballad of Fast Eddie
TTITLE2=When I'm Free Again
TTITLE3=She Loves The Jerk
TTITLE4=When The Blue Hour Comes
TTITLE5=Oh King Richard
TTITLE6=Looking for You
TTITLE7=Stay (Don't Be Cruel)
TTITLE8=The Best I Can
TTITLE9=Last Like a Mask
EXTD=
EXTT0=
EXTT1=
EXTT2=Crowell, Rodney
EXTT3=Crowell, Rodney
EXTT4=Crowell, Rodney
EXTT5=
EXTT6=Crowell, Rodney
EXTT7=Crowell, Rodney
EXTT8=
EXTT9=
PLAYORDER=
